# xmcd
#
# Track frame offsets: 
#        150
#        13072
#        24827
#        39130
#        52665
#        66975
#        79727
#        96905
#        111047
#        126380
#
# Disc length: 1905 seconds
#
# Revision: 2
# Processed by: cddbd v1.4PL0 Copyright (c) Steve Scherf et al.
# Submitted via: ExactAudioCopy v0.90b2
#
DISCID=73076f0a
DTITLE=Janie Frickie - After Midnight
DYEAR=1900
DGENRE=Country
TTITLE0=Are You Satisfied
TTITLE1=I Hurt
TTITLE2=I Don't Like Being Lonely
TTITLE3=Teach Me How To Forget
TTITLE4=If I Didn't Care
TTITLE5=Baby You're Gone
TTITLE6=My Eternal Flame
TTITLE7=Nobody Ever Loved Me So Good
TTITLE8=From Time To Time (It Feels Like Love Again)
TTITLE9=It Won't Be Easy
EXTD=
EXTT0=
EXTT1=
EXTT2=
EXTT3=
EXTT4=
EXTT5=
EXTT6=
EXTT7=
EXTT8=
EXTT9=
PLAYORDER=
